<?xml version="1.0" standalone="no"?>
<!DOCTYPE svg PUBLIC "-//W3C//DTD SVG 20010904//EN"
 "http://www.w3.org/TR/2001/REC-SVG-20010904/DTD/svg10.dtd">
<svg version="1.0" xmlns="http://www.w3.org/2000/svg"
 width="683.000000pt" height="684.000000pt" viewBox="0 0 683.000000 684.000000"
 preserveAspectRatio="xMidYMid meet">

<g transform="translate(0.000000,684.000000) scale(0.100000,-0.100000)"
fill="#000000" stroke="none">
<path d="M0 3420 l0 -3420 3415 0 3415 0 0 3420 0 3420 -3415 0 -3415 0 0
-3420z m6730 -20 l0 -3290 -3290 0 -3290 0 0 3290 0 3290 3290 0 3290 0 0
-3290z"/>
<path d="M3387 4529 c-53 -31 -50 -117 5 -145 81 -42 158 66 93 131 -26 27
-67 32 -98 14z"/>
<path d="M3319 4330 c-20 -20 -32 -52 -53 -138 -30 -128 -31 -148 -13 -155 25
-9 35 7 59 96 l24 89 -4 -239 c-2 -131 -5 -267 -6 -302 -1 -52 2 -66 17 -75
32 -19 43 15 61 186 17 161 23 195 30 187 2 -2 12 -78 21 -169 9 -91 20 -175
25 -187 11 -26 48 -31 57 -8 3 9 0 103 -7 210 -10 151 -10 198 -1 209 7 8 10
29 7 48 -3 18 -8 58 -11 88 l-6 55 26 -35 c27 -36 77 -69 108 -70 16 0 17 -15
17 -180 l0 -180 -26 -10 c-38 -15 -19 -30 37 -30 35 0 49 4 49 14 0 7 -9 16
-20 19 -19 5 -20 14 -20 185 0 151 2 181 15 186 8 3 15 12 15 21 0 9 -7 18
-15 21 -9 4 -15 19 -15 40 0 19 -4 34 -10 34 -5 0 -10 -13 -10 -30 0 -19 -5
-30 -14 -30 -26 0 -66 42 -76 80 -6 22 -21 52 -34 67 -22 25 -29 27 -112 28
-83 1 -91 0 -115 -25z m171 -60 c0 -5 -9 -10 -20 -10 -11 0 -20 5 -20 10 0 6
9 10 20 10 11 0 20 -4 20 -10z"/>
<path d="M3143 3815 c-17 -12 -53 -67 -53 -82 0 -1 36 -3 80 -3 44 0 80 2 80
5 0 20 -32 75 -48 84 -27 14 -33 14 -59 -4z m59 -22 c31 -28 22 -43 -27 -43
-38 0 -45 3 -45 20 0 18 23 39 44 40 5 0 18 -7 28 -17z"/>
<path d="M3100 3686 c0 -19 4 -46 10 -60 9 -24 15 -26 64 -26 30 0 57 3 59 8
3 4 8 31 12 60 l7 52 -76 0 -76 0 0 -34z"/>
<path d="M3606 3680 c-16 -29 -16 -33 -2 -55 15 -23 23 -25 96 -25 60 0 80 3
80 13 0 8 -11 19 -25 25 -21 10 -24 16 -19 42 l7 30 -60 0 c-55 0 -60 -2 -77
-30z"/>
<path d="M1141 3293 c2 -23 316 -638 327 -641 7 -2 32 39 63 105 l51 108 52
-105 c28 -57 57 -106 64 -108 8 -2 67 108 167 312 85 174 155 320 155 326 0 6
-27 10 -64 10 l-63 0 -41 -87 c-22 -49 -66 -142 -97 -208 l-56 -119 -26 57
-26 57 66 139 c37 76 67 144 67 150 0 7 -24 11 -63 11 l-64 0 -35 -77 -35 -78
-36 78 -36 77 -65 0 c-36 0 -66 -2 -66 -5 0 -3 31 -70 69 -150 l70 -145 -26
-58 -25 -57 -19 40 c-11 22 -55 115 -99 208 l-79 167 -65 0 c-37 0 -66 -3 -65
-7z"/>
<path d="M2774 3284 c3 -9 6 -153 6 -320 l0 -305 58 3 57 3 5 154 5 155 140
-158 140 -157 59 3 c33 2 61 8 63 13 2 6 -52 72 -119 146 -68 75 -131 145
-141 156 -17 20 -15 23 103 162 66 78 118 146 115 152 -4 5 -32 9 -64 9 l-59
0 -118 -139 -119 -139 -5 126 c-3 70 -9 133 -13 140 -5 7 -30 12 -64 12 -46 0
-54 -3 -49 -16z"/>
<path d="M3400 2992 c0 -226 3 -311 12 -320 7 -7 31 -12 55 -12 l43 0 0 320 0
320 -55 0 -55 0 0 -308z"/>
<path d="M5260 2980 l0 -321 53 3 52 3 0 315 0 315 -52 3 -53 3 0 -321z"/>
<path d="M5596 3154 c-10 -14 -42 -54 -72 -89 -64 -76 -72 -115 -24 -115 l30
0 0 -105 c0 -154 23 -188 127 -188 53 0 85 15 78 36 -2 7 -6 24 -9 39 -5 22
-12 27 -44 30 l-37 3 -3 92 -3 92 43 3 43 3 0 50 0 50 -42 3 -43 3 0 60 c0 66
-15 78 -44 33z"/>
<path d="M2182 3039 c-64 -32 -96 -85 -100 -169 -6 -95 25 -152 103 -193 55
-28 146 -27 203 2 53 27 66 50 44 78 -17 22 -18 22 -73 6 -71 -20 -121 -12
-149 25 l-22 27 123 3 c138 3 159 12 159 66 0 37 -30 105 -56 128 -57 50 -160
62 -232 27z m146 -95 c44 -31 28 -44 -53 -44 -59 0 -75 3 -75 14 0 22 40 46
75 46 17 0 41 -7 53 -16z"/>
<path d="M3715 3046 c-40 -17 -84 -63 -101 -103 -28 -66 -11 -176 34 -226 54
-60 180 -79 260 -38 54 28 68 52 44 81 -16 20 -19 20 -61 5 -24 -8 -57 -15
-73 -15 -37 0 -84 24 -98 50 -10 19 -7 20 114 20 139 0 156 7 156 63 0 38 -30
105 -56 129 -51 45 -157 62 -219 34z m133 -102 c44 -31 28 -44 -53 -44 -59 0
-75 3 -75 14 0 22 40 46 75 46 17 0 41 -7 53 -16z"/>
<path d="M4165 3043 c-106 -56 -144 -172 -90 -279 42 -84 127 -122 230 -103
51 9 90 32 109 62 8 13 6 21 -9 37 -19 18 -23 18 -60 5 -49 -17 -82 -18 -124
-4 -27 10 -51 34 -51 53 0 3 52 6 116 6 63 0 124 5 135 10 23 13 26 87 5 128
-19 36 -65 78 -99 91 -41 16 -127 13 -162 -6z m139 -104 c14 -11 24 -25 21
-30 -4 -5 -40 -9 -81 -9 -80 0 -96 13 -52 44 31 22 80 20 112 -5z"/>
<path d="M4524 3047 c-2 -7 -3 -96 -2 -197 l3 -185 53 -3 52 -3 0 130 c0 128
0 130 26 150 35 27 104 29 127 3 14 -15 17 -41 17 -138 0 -80 4 -124 12 -132
7 -7 33 -12 58 -12 l45 0 -3 148 c-4 168 -13 193 -78 229 -47 27 -121 30 -165
7 -28 -14 -32 -14 -48 0 -21 19 -90 21 -97 3z"/>
<path d="M2286 2567 c-28 -21 -17 -58 21 -71 41 -14 38 -32 -4 -29 -39 3 -43
-13 -8 -29 29 -13 72 1 81 27 9 22 -21 51 -57 59 -19 3 -28 10 -23 17 3 6 19
9 35 5 34 -7 47 9 20 23 -26 14 -43 14 -65 -2z"/>
<path d="M2426 2559 c-34 -27 -35 -71 -1 -104 30 -30 54 -31 89 -4 19 15 26
30 26 54 0 36 -36 75 -70 75 -10 0 -29 -9 -44 -21z m74 -23 c28 -35 -11 -93
-47 -70 -36 22 -23 84 17 84 10 0 23 -7 30 -14z"/>
<path d="M2664 2557 c-36 -31 -36 -73 1 -105 21 -17 35 -22 54 -17 36 9 54 26
42 38 -7 7 -15 6 -25 -3 -20 -15 -62 -6 -70 16 -16 42 36 82 70 54 10 -9 18
-10 25 -3 7 7 4 16 -12 27 -32 22 -53 20 -85 -7z"/>
<path d="M2800 2510 l0 -70 50 0 c28 0 50 5 50 10 0 6 -18 10 -40 10 l-40 0 0
60 c0 33 -4 60 -10 60 -6 0 -10 -30 -10 -70z"/>
<path d="M2927 2574 c-4 -4 -7 -36 -7 -71 l0 -63 50 0 c28 0 50 5 50 10 0 6
-16 10 -35 10 -24 0 -35 5 -35 15 0 10 10 15 30 15 20 0 30 5 30 15 0 10 -10
15 -30 15 -20 0 -30 5 -30 15 0 11 11 15 36 15 24 0 34 4 32 13 -5 13 -79 22
-91 11z"/>
<path d="M3305 2568 c-2 -7 -5 -26 -7 -41 l-3 -28 -42 36 -43 37 0 -66 c0 -37
4 -66 10 -66 6 0 10 16 10 35 0 19 4 35 8 35 4 0 23 -16 42 -35 19 -19 38 -35
42 -35 12 0 10 128 -2 135 -6 3 -12 0 -15 -7z"/>
<path d="M3446 2573 c-3 -3 -6 -35 -6 -70 0 -49 3 -63 15 -63 12 0 15 14 15
64 0 60 -8 84 -24 69z"/>
<path d="M3507 2573 c-13 -12 -7 -23 13 -23 18 0 20 -7 20 -55 0 -42 3 -55 15
-55 11 0 15 13 15 54 0 46 3 54 21 59 34 9 11 27 -35 27 -23 0 -46 -3 -49 -7z"/>
<path d="M3624 2565 c-7 -17 4 -37 17 -30 12 8 12 45 -1 45 -6 0 -13 -7 -16
-15z"/>
<path d="M3696 2567 c-28 -21 -17 -58 21 -71 41 -14 38 -32 -4 -29 -39 3 -43
-13 -8 -29 29 -13 72 1 81 27 9 21 -22 53 -55 57 -32 4 -25 23 9 24 43 2 46 4
26 19 -24 18 -47 19 -70 2z"/>
<path d="M3890 2510 c0 -40 4 -70 10 -70 6 0 10 11 10 25 0 14 3 25 6 25 3 0
15 -11 26 -25 11 -14 29 -25 41 -25 20 0 19 1 -6 28 -32 34 -33 43 -7 67 21
19 27 45 11 45 -5 0 -23 -17 -40 -37 l-30 -38 -1 38 c0 20 -4 37 -10 37 -6 0
-10 -30 -10 -70z"/>
<path d="M4036 2573 c-3 -3 -6 -35 -6 -70 l0 -63 50 0 c28 0 50 5 50 10 0 6
-16 10 -35 10 l-35 0 0 54 c0 51 -9 74 -24 59z"/>
<path d="M4157 2574 c-4 -4 -7 -36 -7 -71 l0 -63 55 0 c30 0 55 5 55 10 0 6
-18 10 -40 10 -29 0 -40 4 -40 15 0 11 11 15 36 15 45 0 42 24 -4 28 -46 5
-42 30 6 34 20 2 37 8 37 13 0 12 -87 19 -98 9z"/>
<path d="M4297 2573 c-4 -3 -7 -35 -7 -70 l0 -63 50 0 c28 0 50 5 50 10 0 6
-16 10 -35 10 -24 0 -35 5 -35 15 0 10 10 15 30 15 20 0 30 5 30 15 0 10 -10
15 -30 15 -20 0 -30 5 -30 15 0 10 11 15 35 15 24 0 35 5 35 15 0 11 -11 15
-43 15 -24 0 -47 -3 -50 -7z"/>
<path d="M4526 2573 c-3 -3 -6 -21 -6 -40 0 -18 -4 -33 -8 -33 -4 0 -23 16
-42 35 -19 19 -38 35 -42 35 -4 0 -8 -29 -8 -65 0 -51 3 -65 15 -65 10 0 15
11 15 35 0 19 4 35 8 35 4 0 23 -16 42 -35 19 -19 38 -35 42 -35 11 0 10 127
-1 134 -4 3 -11 3 -15 -1z"/>
<path d="M4586 2573 c-3 -3 -6 -26 -6 -50 0 -32 4 -43 15 -43 11 0 15 12 15
44 0 43 -10 63 -24 49z"/>
<path d="M3072 2505 c-23 -48 -28 -65 -17 -65 7 0 17 5 20 10 9 14 51 13 75
-2 10 -7 22 -9 25 -6 8 7 -52 128 -63 128 -4 0 -22 -29 -40 -65z m46 -24 c-15
-5 -21 7 -13 26 7 17 8 17 15 -2 4 -11 3 -22 -2 -24z"/>
<path d="M4586 2463 c-11 -11 -6 -23 9 -23 8 0 15 4 15 9 0 13 -16 22 -24 14z"/>
</g>
</svg>
